<svg width="133" height="34" viewBox="0 0 133 34" fill="none" xmlns="http://www.w3.org/2000/svg"><path d="M127.179 14.5614C130.173 14.5614 132.599 12.16 132.599 9.1977C132.599 6.2354 130.173 3.83398 127.179 3.83398C124.186 3.83398 121.76 6.2354 121.76 9.1977C121.76 12.16 124.186 14.5614 127.179 14.5614Z" fill="#FFFFFF"/><path d="M127.179 29.3114C130.173 29.3114 132.599 26.91 132.599 23.9477C132.599 20.9854 130.173 18.584 127.179 18.584C124.186 18.584 121.76 20.9854 121.76 23.9477C121.76 26.91 124.186 29.3114 127.179 29.3114Z" fill="#FFFFFF"/><path d="M23.6465 33.9826L36.8292 0H23.6465V33.9826Z" fill="#FFFFFF"/><path d="M66.9961 33.9828H89.5075L92.9849 25.0186H66.9961V33.9828Z" fill="#FFFFFF"/><path d="M66.9961 0V25.0183L76.7014 0H66.9961Z" fill="#FFFFFF"/><path d="M0 0L13.1827 33.9826H23.6456L10.4629 0H0Z" fill="#FFFFFF"/><path d="M105.468 8.98385H112.997L116.503 0H94.6988L94.6855 8.98385H102.226V25.0183H94.6855V34H113.011L116.503 25.0183H105.468V8.98385Z" fill="#FFFFFF"/><path d="M61.8279 8.95115L65.2855 0H38.5391V33.9826H61.8081L65.2855 25.0183H41.7786V20.6681H57.2692L60.2159 13.0704H41.7786V8.95115H61.8279Z" fill="#FFFFFF"/></svg>
